# xmcd CD database file
#
# Track frame offsets:
#	150
#	13285
#	29460
#	49138
#	63058
#	75355
#	95107
#	113877
#	126712
#	142262
#	156702
#	170756
#	190668
#	212304
#	231446
#	252649
#	267287
#	278699
#	293374
#	308179
#	324141
#	341299
#
# Disc length: 4746 seconds
#
# Revision: 0
# Processed by: cddbd v1.5.1PL0 Copyright (c) Steve Scherf et al.
# Submitted via: CDex 1.51
#
DISCID=48128816
DTITLE=Diversos - Zilea Collection 08
DYEAR=2005
DGENRE=MPB
TTITLE0=Casa de Campo-Elis Regina
TTITLE1=Samba em preludio-Vinicius e Mayza
TTITLE2=Tarde triste/Meu mundo caiu/Ouca-Mayza
TTITLE3=So nos dois e que sabemos-Fafa de Belem
TTITLE4=Nada sera como antes-Elis
TTITLE5=Pourt poury Chico Buarque-Quat em Cy
TTITLE6=Guru-Daltro
TTITLE7=Atrás da porta-Elis
TTITLE8=Cacador de mim-MPB 4
TTITLE9=Me deixas louca-Elis
TTITLE10=Descaminhos-Zizi Possi
TTITLE11=O ciume-Gal Costa
TTITLE12=Aperto de mao-Nana Caymme
TTITLE13=Foi assim-Fafa de Belem
TTITLE14=Deu pra ti-Kleiton e Kledir
TTITLE15=D ont cry for me Argentina- 
TTITLE16=Tira as maos de mim-Chico
TTITLE17=Uma cancao de amor-Zizi Possi
TTITLE18=O bom Sebastiao-Bloco da Saudade
TTITLE19=Morena de Angola-Clara Nunes e Chico Buarque
TTITLE20=Viola de Penedo-Clara Nunes
TTITLE21=Feira de Mangaio-Sivuca
EXTD=YEAR: 2005
EXTT0=
EXTT1=
EXTT2=
EXTT3=
EXTT4=
EXTT5=
EXTT6=
EXTT7=
EXTT8=
EXTT9=
EXTT10=
EXTT11=
EXTT12=
EXTT13=
EXTT14=
EXTT15=
EXTT16=
EXTT17=
EXTT18=
EXTT19=
EXTT20=
EXTT21=
PLAYORDER=
